<?xml version="1.0" standalone="no"?><!DOCTYPE svg PUBLIC "-//W3C//DTD SVG 1.1//EN" "http://www.w3.org/Graphics/SVG/1.1/DTD/svg11.dtd"><svg t="1610962856436" class="icon" viewBox="0 0 1024 1024" version="1.1" xmlns="http://www.w3.org/2000/svg" p-id="1754" xmlns:xlink="http://www.w3.org/1999/xlink" width="128" height="128"><defs><style type="text/css"></style></defs><path d="M535.18 830.69l175.81-101.5-175.8-101.5-175.81 101.5 175.8 101.5z" fill="#765EEF" p-id="1755"></path><path d="M535.18 830.69v25.98l-175.8-101.41v-26.07l175.8 101.5z" fill="#6410C6" p-id="1756"></path><path d="M710.99 729.19l-0.09 25.27-175.72 102.21v-25.98l175.81-101.5z" fill="#8879F2" p-id="1757"></path><path d="M464.75 617.92c-37-64.06-103.21-95.07-147.91-69.26l-64.09 37L267 606.28l15.64-10c-8.84 33.06-2.51 75.73 20.23 115.12 21.53 37.29 53 63.26 84.3 73.47l-12.61 5.86 12.14 26.94 64.09-37c44.69-25.83 50.95-98.67 13.96-162.75zM804.93 421.52c-37-64.06-103.21-95.07-147.91-69.26l-64.09 37 14.24 20.62 15.64-10C614 432.92 620.31 475.6 643 515c21.53 37.29 53 63.26 84.3 73.47l-12.61 5.86 12.14 26.94 64.09-37c44.74-25.83 51-98.69 14.01-162.75z" fill="#5C37E2" p-id="1758"></path><path d="M578.95623 551.979206a133.94 93.46 60 1 0 161.877468-93.46 133.94 93.46 60 1 0-161.877468 93.46Z" fill="#F2F2F2" p-id="1759"></path><path d="M513.66 152.67v580c0 5 6.78 9.12 15.14 9.12s15.14-4.08 15.14-9.12v-580z" fill="#6F2AD1" p-id="1760"></path><path d="M629.23 154.44c-89.31-51.57-217.95 3.39-286.72 122.48-28.26 49-42.08 101.31-42.33 149.55-0.25 57.66 0 102.08 0 151l0.31 0.12c-17-2.57-33.47-0.17-47.74 8.07-44.7 25.81-51 98.67-14 162.73S342 843.46 386.69 817.65s51-98.67 14-162.73c-15.91-27.56-37.24-48.95-59.93-62.38l1.08 0.4c0-48.93-0.31-84.76 0-142.42 0.25-48.24 14-100.62 42.33-149.61 68.78-119.09 197.35-174 286.72-122.41z" fill="#765EEF" p-id="1761"></path><path d="M263.779079 733.950804a92.56 64.59 60 1 0 111.873162-64.59 92.56 64.59 60 1 0-111.873162 64.59Z" fill="#FF9C52" p-id="1762"></path><path d="M731.86 339.42c-0.19 21.73-0.19 12.23-0.19 34.15l-41.58-24c0-21.92-0.06-12.42 0.12-34.15a230.86 230.86 0 0 0-1.38-28.08c-5-43.21-22.17-78.7-49.18-102.38a123 123 0 0 1 21.79 9.86c38.44 22.17 62.93 63.56 69 116.57a229.29 229.29 0 0 1 1.42 28.03z" fill="#CCCCCC" p-id="1763"></path><path d="M750.7 337.09c0 18.28-0.19 7.14-0.19 25.61l-18.84 10.87c0-21.92 0-12.42 0.19-34.15a229.29 229.29 0 0 0-1.44-28c-6-53-30.53-94.4-69-116.57a123 123 0 0 0-21.77-9.85 132.18 132.18 0 0 0-43.59-7.16c-69.91 0-147.85 49.81-195.59 132.53-27.76 48-40.76 99.3-40 145.65 0.88 52.57 1.38 75.4 1.38 125.4l-20 11.56c0-48.93-0.31-84.76 0-142.42 0.25-48.24 14-100.62 42.33-149.61 68.78-119.09 197.35-174 286.72-122.41 43.71 25.25 71.54 71.67 78.26 130.77a239 239 0 0 1 1.54 27.78z" fill="#F2F2F2" p-id="1764"></path><path d="M308.76 741a6.48 6.48 0 0 1-2-1.87c-0.94-1.33-23.08-31.31-28.83-49.58 0-0.1-0.06-0.2-0.09-0.3a28.42 28.42 0 0 1-1.37-7.56v-0.28c0-0.28-0.06-0.68-0.06-1.07 0-11.7 8.47-16.33 18.87-10.33 5.13 3 11.94 13.88 13.51 14.3 1.14 0.3 8.37-1.66 13.51 1.3 10.4 6 18.87 20.42 18.87 32.12 0 0.39-0.05 0.72-0.05 0.92v0.38a13.54 13.54 0 0 1-1.16 5.34 7.89 7.89 0 0 1-1.09 2.06l-0.08 0.09a2.79 2.79 0 0 0-0.17 0.27 8.49 8.49 0 0 1-0.69 0.92c-7.56 8.93-26.37 13.44-27.18 13.65a2.69 2.69 0 0 1-2-0.4z" fill="#765EEF" p-id="1765"></path><path d="M603.510233 539.034752a90.2 62.94 57.61 1 0 106.29577-67.431326 90.2 62.94 57.61 1 0-106.29577 67.431326Z" fill="#FF9C52" p-id="1766"></path><path d="M623.71 527.85c-24.53-38.66-24.4-83-1.48-104.48a45.09 45.09 0 0 0-13.89 5.72C579 447.71 576.83 496.91 603.52 539s72.12 61 101.48 42.42a44.25 44.25 0 0 0 6.3-5.41c-28.43 6.73-64.82-12.27-87.59-48.16z" fill="#6F2AD1" p-id="1767"></path></svg>