<?xml version="1.0" standalone="no"?><!DOCTYPE svg PUBLIC "-//W3C//DTD SVG 1.1//EN" "http://www.w3.org/Graphics/SVG/1.1/DTD/svg11.dtd"><svg t="1610963534936" class="icon" viewBox="0 0 1024 1024" version="1.1" xmlns="http://www.w3.org/2000/svg" p-id="2070" xmlns:xlink="http://www.w3.org/1999/xlink" width="128" height="128"><defs><style type="text/css"></style></defs><path d="M513.18 843.25v63.34L880 694.8v-63.33L513.18 843.25z" fill="#5321DB" p-id="2071"></path><path d="M513.18 843.25L880 631.47 530.52 429.7 163.71 641.48l349.47 201.77z" fill="#5C37E2" p-id="2072"></path><path d="M513.18 843.25v63.34L163.71 704.81v-63.33l349.47 201.77zM289.07 484.17L446.1 659.82 289.07 569.1v-84.93z" fill="#6410C6" p-id="2073"></path><path d="M530.52 344.76l157.24 175.72L446.1 659.82 289.07 484.17" fill="#5633D3" p-id="2074"></path><path d="M529.2 374.71l133.38 144.91-202.44 116.89-133.21-144.86" fill="#FFFFFF" p-id="2075"></path><path d="M163.71 579.37v52.1l86.5 49.86 0.02-23.91 178.76 103.21-0.01 23.74 84 48.42v-51.15L329.63 641.48l-165.92-62.11z" fill="#6410C6" p-id="2076"></path><path d="M512.98 781.64l96.35-55.66v51.16l-96.35 55.65v-51.15zM250.21 681.33l20.72-11.96-20.7-11.95-0.02 23.91z" fill="#5321DB" p-id="2077"></path><path d="M585.02 633l23.66 13.65-43.56 25.15-23.66-13.66L585.02 633zM635.1 604.03l23.66 13.66-43.56 25.15-23.65-13.66 43.55-25.15zM684.18 575.65l23.65 13.66-43.55 25.15-23.66-13.66 43.56-25.15zM615.67 651.02l23.66 13.66-43.56 25.15-23.66-13.66 43.56-25.15zM665.75 622.05l23.66 13.66-43.56 25.15-23.65-13.66 43.55-25.15zM714.83 593.67l23.65 13.66-43.55 25.15-23.66-13.66 43.56-25.15zM646.65 668.5l23.66 13.66-43.56 25.15-23.65-13.66 43.55-25.15zM696.74 639.54l23.65 13.66-43.55 25.14-23.66-13.66 43.56-25.14zM745.81 611.15l23.66 13.66-43.56 25.15-23.66-13.66 43.56-25.15z" fill="#FFFFFF" p-id="2078"></path><path d="M259.55 524l-95.84 55.33s88.9 32 168.24 82.22c102.47 64.83 181 120.05 181 120.05l96.38-55.6s-100-73.14-198.46-129.8A1144.06 1144.06 0 0 0 259.55 524z" fill="#4514CA" p-id="2079"></path><path d="M484.66 193.91c-2.82 48.62-28.57 106.89-68.79 138.09-3.14 2.44-14.26 26.94-14.26 26.94s-11.53-11.53-14.26-10.45c-40.36 15.88-69.69-20.25-68.79-58C319.84 236 354.35 171 401.6 142.7c40.29-24.1 85.9 2.12 83.06 51.21z" fill="#FF8150" p-id="2080"></path><path d="M371.49 288.75a1.62 1.62 0 0 1-1.39-2.47c0.07-0.12 7.28-12 7.28-19.61V243c0-15.43 10.5-34.1 23.4-41.62 6.41-3.73 12.56-4.29 17.32-1.55 5 2.86 7.72 8.85 7.72 16.88v23.68c0 7 6.33 10.15 6.6 10.28a1.63 1.63 0 0 1 0.11 2.87l-60.23 35a1.64 1.64 0 0 1-0.81 0.21z m40-87.35a18.32 18.32 0 0 0-9 2.82c-12 7-21.79 24.41-21.79 38.82v23.64c0 5.14-2.73 11.67-5 16.14l52.93-30.73a14.59 14.59 0 0 1-6-11.67v-23.68c0-6.81-2.16-11.81-6.09-14.06a9.91 9.91 0 0 0-5.07-1.28z" fill="#FFFFFF" p-id="2081"></path><path d="M407.3 271.45a12.88 12.88 0 0 1-5.7 10.14c-3.15 1.83-5.7 0.25-5.7-3.52a12.89 12.89 0 0 1 5.7-10.14c3.15-1.82 5.7-0.25 5.7 3.52z" fill="#FFFFFF" p-id="2082"></path></svg>