<svg xmlns="http://www.w3.org/2000/svg" width="16" height="16" viewBox="0 0 16 16">
  <g fill="none">
    <rect width="16" height="16" fill="#000" opacity="0"/>
    <path fill="#333" d="M8.809375,8 L12.9109375,3.1109375 C12.9796875,3.0296875 12.921875,2.90625 12.815625,2.90625 L11.56875,2.90625 C11.4953125,2.90625 11.425,2.9390625 11.3765625,2.9953125 L7.99375,7.028125 L4.6109375,2.9953125 C4.5640625,2.9390625 4.49375,2.90625 4.41875,2.90625 L3.171875,2.90625 C3.065625,2.90625 3.0078125,3.0296875 3.0765625,3.1109375 L7.178125,8 L3.0765625,12.8890625 C3.0078125,12.9703125 3.065625,13.09375 3.171875,13.09375 L4.41875,13.09375 C4.4921875,13.09375 4.5625,13.0609375 4.6109375,13.0046875 L7.99375,8.971875 L11.3765625,13.0046875 C11.4234375,13.0609375 11.49375,13.09375 11.56875,13.09375 L12.815625,13.09375 C12.921875,13.09375 12.9796875,12.9703125 12.9109375,12.8890625 L8.809375,8 Z"/>
  </g>
</svg>
