<svg xmlns="http://www.w3.org/2000/svg" width="24" height="24" viewBox="0 0 24 24">
  <g fill="none">
    <rect width="24" height="24" fill="#000" opacity="0"/>
    <path fill="#FFF" d="M12,0 C5.37321429,0 0,5.37321429 0,12 C0,18.6267857 5.37321429,24 12,24 C18.6267857,24 24,18.6267857 24,12 C24,5.37321429 18.6267857,0 12,0 Z M16.4303571,16.5589286 L14.6625,16.5508929 L12,13.3767857 L9.34017857,16.5482143 L7.56964286,16.55625 C7.45178571,16.55625 7.35535714,16.4625 7.35535714,16.3419643 C7.35535714,16.2910714 7.37410714,16.2428571 7.40625,16.2026786 L10.8910714,12.0508929 L7.40625,7.90178571 C7.37410714,7.86160714 7.35535714,7.81339286 7.35535714,7.7625 C7.35535714,7.64464286 7.45178571,7.54821429 7.56964286,7.54821429 L9.34017857,7.55625 L12,10.7303571 L14.6598214,7.55892857 L16.4276786,7.55089286 C16.5455357,7.55089286 16.6419643,7.64464286 16.6419643,7.76517857 C16.6419643,7.81607143 16.6232143,7.86428571 16.5910714,7.90446429 L13.1116071,12.0535714 L16.59375,16.2053571 C16.6258929,16.2455357 16.6446429,16.29375 16.6446429,16.3446429 C16.6446429,16.4625 16.5482143,16.5589286 16.4303571,16.5589286 Z"/>
  </g>
</svg>
