<svg xmlns="http://www.w3.org/2000/svg" width="24" height="24" viewBox="0 0 24 24">
  <path fill="#FFF" d="M12,0 C5.37321429,0 0,5.37321429 0,12 C0,18.6267857 5.37321429,24 12,24 C18.6267857,24 24,18.6267857 24,12 C24,5.37321429 18.6267857,0 12,0 Z M11.1428571,6.21428571 C11.1428571,6.09642857 11.2392857,6 11.3571429,6 L12.6428571,6 C12.7607143,6 12.8571429,6.09642857 12.8571429,6.21428571 L12.8571429,13.5 C12.8571429,13.6178571 12.7607143,13.7142857 12.6428571,13.7142857 L11.3571429,13.7142857 C11.2392857,13.7142857 11.1428571,13.6178571 11.1428571,13.5 L11.1428571,6.21428571 Z M12,18 C11.2901786,18 10.7142857,17.4241071 10.7142857,16.7142857 C10.7142857,16.0044643 11.2901786,15.4285714 12,15.4285714 C12.7098214,15.4285714 13.2857143,16.0044643 13.2857143,16.7142857 C13.2857143,17.4241071 12.7098214,18 12,18 Z"/>
</svg>
