<?xml version="1.0" standalone="no"?><!DOCTYPE svg PUBLIC "-//W3C//DTD SVG 1.1//EN" "http://www.w3.org/Graphics/SVG/1.1/DTD/svg11.dtd"><svg t="1610708080578" class="icon" viewBox="0 0 1024 1024" version="1.1" xmlns="http://www.w3.org/2000/svg" p-id="1696" width="128" height="128" xmlns:xlink="http://www.w3.org/1999/xlink"><defs><style type="text/css"></style></defs><path d="M928.6 551.4L551 929.7c-21.8 21.8-57.1 21.8-78.9 0L94.5 551.4c-21.8-21.8-21.8-57.2 0-79.1L472.1 94c21.8-21.8 57.1-21.8 78.9 0l377.6 378.3c21.8 21.8 21.8 57.2 0 79.1z" fill="#F7D04A" p-id="1697"></path><path d="M938.4 462.4L774.4 298c-5.1-5.1-13.5-5.4-18.9-0.7-6.1 5.2-6.5 14.8-0.8 20.5l16 16.1v39.5l-69.6-69.7v-39.5l15.3 15.3c5.4 5.5 14.3 5.5 19.7 0 5.4-5.5 5.4-14.3 0-19.8L560.9 84.1C540.5 63.7 508.7 58 482.5 70c-7.5 3.4-14.4 8.3-20.3 14.1L84.6 462.4c-27.2 27.2-27.2 71.6 0 98.8l377.6 378.3c20.6 20.7 53 26.2 79.3 13.7 7.1-3.4 13.7-8.1 19.3-13.7l377.6-378.3c27.2-27.2 27.2-71.6 0-98.8z" fill="" p-id="1698"></path><path d="M511.5 870.4L153.7 511.8l357.8-358.5 357.9 358.5z" fill="#F3B41B" p-id="1699"></path><path d="M206.3 492l285.5-286c10.9-10.9 28.6-10.9 39.5 0l285.5 286c10.9 10.9 10.9 28.6 0 39.5L531.3 817.6c-10.9 10.9-28.6 10.9-39.5 0l-285.5-286c-10.9-10.9-10.9-28.6 0-39.6z" fill="#F7D04A" p-id="1700"></path><path d="M334.8 597.6h353.4v41H334.8z" fill="#EB6836" p-id="1701"></path><path d="M334.8 597.6H452v41H334.8z" fill="#C74B38" p-id="1702"></path><path d="M600.8 597.6h52.1v41h-52.1z" fill="#FD9D7E" p-id="1703"></path><path d="M688.2 583.6h-46.9l-116.6-352c-1.9-5.7-7.2-9.6-13.2-9.6-6 0-11.3 3.9-13.2 9.6l-116.6 352h-46.9c-7.7 0-14 6.3-14 14v41c0 7.7 6.2 14 14 14h176.7c7.7 0 14-6.3 14-14s-6.2-14-14-14H348.8v-13h325.5v13h-88.4c-7.7 0-14 6.3-14 14s6.2 14 14 14h102.3c7.7 0 14-6.3 14-14v-41c0-7.8-6.2-14-14-14z" fill="" p-id="1704"></path><path d="M918.7 541.5l-68 68.2v-39.5l48.3-48.4c5.4-5.4 5.4-14.4 0-19.8l-48.3-48.4V414l68 68.2c16.3 16.3 16.3 42.9 0 59.3zM551.5 909.4v-39.6l69.6-69.7v39.5z" fill="#F7D04A" p-id="1705"></path><path d="M499.4 930.3v-32.4c3.5 3.5 7.1 6.4 12.4 6.3 5-0.1 8.4-2.9 11.8-6.3v32.5c-7.9 2.2-16.3 2.2-24.2-0.1z" fill="#666666" p-id="1706"></path><path d="M402 839.6v-39.5l69.5 69.8v39.5z" fill="#F7D04A" p-id="1707"></path><path d="M349.9 787.5V748l24.2 24.2v39.5z" fill="#666666" p-id="1708"></path><path d="M92.1 511.8c0-11.2 4.4-21.7 12.3-29.7l68-68.2v39.5l-48.3 48.4c-5.4 5.5-5.4 14.3 0 19.8l48.3 48.4v39.5l-68-68.2c-7.9-7.7-12.3-18.3-12.3-29.5z" fill="#F7D04A" p-id="1709"></path><path d="M374.1 211.9v39.6l-24.2 24.2v-39.5z" fill="#666666" p-id="1710"></path><path d="M471.5 114.3v39.5L402 223.5V184z" fill="#F7D04A" p-id="1711"></path><path d="M523.6 93.4v32.5c-3.4-3.4-6.9-6.3-12.1-6.3-5.2 0-8.6 2.9-12.1 6.3V93.4c7.9-2.4 16.3-2.4 24.2 0zM673.2 275.7L649 251.5v-39.6l24.2 24.3z" fill="#666666" p-id="1712"></path><path d="M551.5 114.3l69.6 69.7v39.5l-69.6-69.7z" fill="#F7D04A" p-id="1713"></path><path d="M200.3 386l24.2-24.2v39.5l-24.2 24.3z" fill="#666666" p-id="1714"></path><path d="M252.4 373.4v-39.6l69.6-69.7v39.6zM252.4 650.3L322 720v39.5l-69.6-69.7z" fill="#F7D04A" p-id="1715"></path><path d="M200.3 598.1l24.2 24.2v39.5l-24.2-24.2zM798.6 661.8v-39.5l24.2-24.2v39.5z" fill="#666666" p-id="1716"></path><path d="M701.1 720l69.6-69.7v39.5l-69.6 69.7z" fill="#F7D04A" p-id="1717"></path><path d="M649 811.7v-39.5l24.2-24.3v39.6zM798.6 361.8l24.2 24.2v39.6l-24.2-24.3z" fill="#666666" p-id="1718"></path><path d="M429 529.5h165l17.9 54.1H411.1zM511.5 280.4l12.8 38.5h-25.5z" fill="#EB6836" p-id="1719"></path><path d="M489.5 346.9h44.1l8 24.2h-60.1z" fill="#FFFFFF" p-id="1720"></path><path d="M455.6 449.4l16.6-50.3h78.6l16.7 50.3z" fill="#EB6836" p-id="1721"></path><path d="M446.3 477.3h130.5l8 24.3H438.3z" fill="#FFFFFF" p-id="1722"></path></svg>